<?xml version="1.0" encoding="utf-8"?>
<!-- Generator: Adobe Illustrator 17.1.0, SVG Export Plug-In . SVG Version: 6.00 Build 0)  -->
<!DOCTYPE svg PUBLIC "-//W3C//DTD SVG 1.1//EN" "http://www.w3.org/Graphics/SVG/1.1/DTD/svg11.dtd">
<svg version="1.1" id="Layer_1" xmlns="http://www.w3.org/2000/svg" xmlns:xlink="http://www.w3.org/1999/xlink" x="0px" y="0px"
	 viewBox="-1 175.9 304 77.1" enable-background="new -1 175.9 304 77.1" xml:space="preserve">
<g>
	<g>
		<g>
			<path fill="#FFFFFF" d="M105.2,199.9l13.7,36.6h-8.4l-2.8-8.2H94.1l-2.9,8.2h-8.1l13.9-36.6H105.2z M105.7,222.3l-4.6-13.4h-0.1
				l-4.8,13.4H105.7z"/>
			<path fill="#FFFFFF" d="M137.2,236.5v-3.7h-0.2c-0.9,1.5-2.1,2.7-3.6,3.3c-1.5,0.7-3,1-4.5,1c-2,0-3.6-0.3-4.8-0.8
				c-1.2-0.5-2.2-1.2-3-2.2c-0.7-0.9-1.2-2.1-1.5-3.4c-0.3-1.4-0.4-2.8-0.4-4.5V210h7.3v15c0,2.2,0.3,3.8,1,4.9
				c0.7,1.1,1.9,1.6,3.6,1.6c2,0,3.4-0.6,4.3-1.8c0.9-1.2,1.3-3.1,1.3-5.8V210h7.3v26.5H137.2z"/>
			<path fill="#FFFFFF" d="M162.8,210v4.9h-5.3V228c0,1.2,0.2,2.1,0.6,2.5c0.4,0.4,1.2,0.6,2.5,0.6c0.4,0,0.8,0,1.2-0.1
				c0.4,0,0.7-0.1,1.1-0.2v5.6c-0.6,0.1-1.3,0.2-2.1,0.2c-0.8,0-1.5,0.1-2.2,0.1c-1.1,0-2.2-0.1-3.2-0.2c-1-0.2-1.9-0.5-2.7-0.9
				c-0.8-0.4-1.4-1.1-1.8-1.9c-0.4-0.8-0.7-1.9-0.7-3.2v-15.7h-4.4V210h4.4v-8h7.3v8H162.8z"/>
			<path fill="#FFFFFF" d="M172.3,199.9v13.8h0.2c0.9-1.5,2.1-2.7,3.5-3.4c1.4-0.7,2.8-1.1,4.2-1.1c2,0,3.5,0.3,4.8,0.8
				c1.2,0.5,2.2,1.3,3,2.2c0.7,0.9,1.2,2.1,1.5,3.4c0.3,1.4,0.4,2.8,0.4,4.5v16.3h-7.3v-15c0-2.2-0.3-3.8-1-4.9
				c-0.7-1.1-1.9-1.6-3.6-1.6c-2,0-3.4,0.6-4.3,1.8c-0.9,1.2-1.3,3.1-1.3,5.8v13.9H165v-36.6H172.3z"/>
			<path fill="#FFFFFF" d="M193.7,217.5c0.6-1.7,1.6-3.2,2.8-4.4c1.2-1.2,2.6-2.2,4.3-2.8c1.7-0.7,3.6-1,5.6-1c2.1,0,4,0.3,5.7,1
				c1.7,0.7,3.1,1.6,4.3,2.8c1.2,1.2,2.1,2.7,2.8,4.4c0.6,1.7,1,3.7,1,5.8c0,2.1-0.3,4-1,5.7c-0.7,1.7-1.6,3.2-2.8,4.4
				c-1.2,1.2-2.6,2.1-4.3,2.8c-1.7,0.6-3.6,1-5.7,1c-2.1,0-4-0.3-5.6-1c-1.7-0.6-3.1-1.6-4.3-2.8c-1.2-1.2-2.1-2.7-2.8-4.4
				c-0.7-1.7-1-3.6-1-5.7C192.8,221.1,193.1,219.2,193.7,217.5z M200.4,226.4c0.2,1,0.6,1.9,1.1,2.7c0.5,0.8,1.2,1.4,2,1.9
				c0.8,0.5,1.8,0.7,3.1,0.7c1.2,0,2.3-0.2,3.1-0.7c0.8-0.5,1.5-1.1,2-1.9c0.5-0.8,0.8-1.7,1.1-2.7c0.2-1,0.3-2,0.3-3.1
				c0-1.1-0.1-2.1-0.3-3.1c-0.2-1-0.6-1.9-1.1-2.7c-0.5-0.8-1.2-1.4-2-1.9c-0.8-0.5-1.9-0.7-3.1-0.7c-1.2,0-2.3,0.2-3.1,0.7
				c-0.8,0.5-1.5,1.1-2,1.9c-0.5,0.8-0.8,1.7-1.1,2.7c-0.2,1-0.3,2.1-0.3,3.1C200.1,224.3,200.2,225.4,200.4,226.4z"/>
			<path fill="#FFFFFF" d="M230.1,210v4.9h0.1c0.3-0.8,0.8-1.6,1.4-2.3c0.6-0.7,1.2-1.3,2-1.8c0.8-0.5,1.6-0.9,2.4-1.2
				c0.9-0.3,1.7-0.4,2.7-0.4c0.5,0,1,0.1,1.6,0.3v6.8c-0.3-0.1-0.8-0.1-1.2-0.2c-0.5-0.1-0.9-0.1-1.4-0.1c-1.3,0-2.5,0.2-3.4,0.7
				c-0.9,0.4-1.7,1.1-2.2,1.8c-0.6,0.8-1,1.7-1.2,2.7c-0.2,1-0.4,2.1-0.4,3.3v12h-7.3V210H230.1z"/>
			<path fill="#FFFFFF" d="M241.8,205.9v-6h7.3v6H241.8z M249.1,210v26.5h-7.3V210H249.1z"/>
			<path fill="#FFFFFF" d="M267.8,210v4.9h-5.3V228c0,1.2,0.2,2.1,0.6,2.5c0.4,0.4,1.2,0.6,2.5,0.6c0.4,0,0.8,0,1.2-0.1
				c0.4,0,0.7-0.1,1.1-0.2v5.6c-0.6,0.1-1.3,0.2-2.1,0.2c-0.8,0-1.5,0.1-2.2,0.1c-1.1,0-2.2-0.1-3.2-0.2c-1-0.2-1.9-0.5-2.7-0.9
				c-0.8-0.4-1.4-1.1-1.8-1.9c-0.4-0.8-0.7-1.9-0.7-3.2v-15.7h-4.4V210h4.4v-8h7.3v8H267.8z"/>
			<path fill="#FFFFFF" d="M281,244.4c-1.4,0.9-3.4,1.4-5.9,1.4c-0.8,0-1.5,0-2.2-0.1c-0.7-0.1-1.5-0.1-2.2-0.2v-6
				c0.7,0.1,1.4,0.1,2.1,0.2c0.7,0.1,1.4,0.1,2.2,0.1c1-0.1,1.7-0.5,2.1-1.1c0.5-0.7,0.7-1.4,0.7-2.2c0-0.6-0.1-1.1-0.3-1.6
				l-9.3-24.9h7.8l6,18.2h0.1l5.8-18.2h7.5l-11.1,29.8C283.5,241.9,282.4,243.5,281,244.4z"/>
		</g>
	</g>
	<g>
		<g>
			<g>
				<path fill="#FFFFFF" d="M14.5,242.1c-1.9,2.2-3.2,3.7-3.2,3.7s1.4-1.4,3.4-3.5c0.2-0.2,0.4-0.4,0.7-0.7l-0.2-0.3
					C14.9,241.5,14.7,241.8,14.5,242.1z"/>
				<path fill="#FFFFFF" d="M11.2,238.6c-2.2,1.9-3.7,3.2-3.7,3.2s1.6-1.2,3.9-2.9c1.7-1.3,3.9-3,6.2-4.8l0.4-1.2
					C15.5,234.9,13.1,237,11.2,238.6z"/>
				<path fill="#FFFFFF" d="M17.7,229.1c-3.3,2-6.7,4-9.1,5.5c-2.5,1.5-4.1,2.6-4.1,2.6s1.7-0.9,4.3-2.3c2.6-1.4,6-3.3,9.3-5.2
					c0.5-0.3,1.1-0.6,1.6-0.9l0.4-1C19.3,228.2,18.5,228.6,17.7,229.1z"/>
				<path fill="#FFFFFF" d="M16.3,226.2c-3.6,1.4-7.2,2.9-9.9,4.1c-2.7,1.1-4.5,1.9-4.5,1.9s1.8-0.6,4.6-1.6c2.7-1,6.4-2.4,10-3.8
					c1.5-0.6,3-1.2,4.5-1.8l0.3-0.8C19.8,224.8,18,225.5,16.3,226.2z"/>
				<path fill="#FFFFFF" d="M15.4,223.2c-3.8,0.9-7.6,1.8-10.4,2.6c-2.8,0.7-4.7,1.2-4.7,1.2s1.9-0.4,4.8-0.9
					c2.9-0.6,6.7-1.4,10.4-2.2c2.2-0.5,4.5-1,6.5-1.5l0.3-0.7C20.2,222,17.8,222.6,15.4,223.2z"/>
				<path fill="#FFFFFF" d="M15,220c-3.9,0.3-7.7,0.7-10.6,1c-2.9,0.3-4.8,0.5-4.8,0.5s1.9-0.1,4.9-0.2c2.9-0.1,6.8-0.4,10.7-0.6
					c2.8-0.2,5.5-0.4,7.9-0.6l0.3-0.7C20.8,219.6,17.9,219.8,15,220z"/>
				<path fill="#FFFFFF" d="M15.1,216.8c-3.9-0.3-7.8-0.5-10.7-0.6c-2.9-0.1-4.9-0.2-4.9-0.2s1.9,0.2,4.8,0.5
					c2.9,0.3,6.8,0.6,10.6,0.9c3.1,0.2,6.1,0.4,8.7,0.6l0.2-0.6C21.3,217.3,18.2,217,15.1,216.8z"/>
				<path fill="#FFFFFF" d="M15.6,213.7c-3.8-0.8-7.6-1.6-10.5-2.2c-2.9-0.6-4.8-0.9-4.8-0.9s1.9,0.5,4.7,1.2
					c2.8,0.7,6.6,1.6,10.4,2.5c3.2,0.7,6.4,1.4,9,2l0.2-0.6C22,215.1,18.8,214.4,15.6,213.7z"/>
				<path fill="#FFFFFF" d="M16.5,210.7c-3.6-1.4-7.3-2.7-10-3.7c-2.7-1-4.6-1.6-4.6-1.6s1.8,0.8,4.5,1.9c2.7,1.1,6.3,2.6,9.9,4
					c3.1,1.2,6.2,2.4,8.8,3.4l0.2-0.6C22.8,213.1,19.7,211.9,16.5,210.7z"/>
				<path fill="#FFFFFF" d="M18,207.8c-3.4-1.9-6.8-3.8-9.3-5.2c-2.6-1.4-4.3-2.3-4.3-2.3s1.6,1,4.1,2.6c2.5,1.5,5.8,3.5,9.2,5.5
					c2.8,1.7,5.7,3.3,8.1,4.6l0.2-0.6C23.6,211.1,20.8,209.4,18,207.8z"/>
				<path fill="#FFFFFF" d="M19.8,205.2c-3.1-2.4-6.1-4.8-8.5-6.5c-2.3-1.7-3.9-2.9-3.9-2.9s1.5,1.3,3.7,3.1
					c2.2,1.9,5.2,4.3,8.3,6.8c2.5,2,4.9,3.9,7,5.5l0.2-0.6C24.6,209,22.2,207.1,19.8,205.2z"/>
				<path fill="#FFFFFF" d="M22,202.9c-2.7-2.8-5.4-5.6-7.4-7.7c-2-2.1-3.4-3.4-3.4-3.4s1.3,1.5,3.2,3.7c1.9,2.2,4.5,5.1,7.2,7.9
					c1.9,2.1,3.9,4.2,5.6,6l0.3-0.6C25.7,206.9,23.9,204.9,22,202.9z"/>
				<path fill="#FFFFFF" d="M24.5,201c-2.2-3.2-4.5-6.4-6.2-8.7c-1.7-2.4-2.9-3.9-2.9-3.9s1,1.6,2.6,4.1c1.6,2.4,3.7,5.7,5.9,8.9
					c1.4,2,2.8,4,4,5.8l0.3-0.7C27.1,204.7,25.8,202.9,24.5,201z"/>
				<path fill="#FFFFFF" d="M27.2,199.4c-1.7-3.5-3.5-7-4.8-9.5c-1.3-2.6-2.3-4.3-2.3-4.3s0.8,1.8,2,4.4c1.2,2.7,2.8,6.2,4.5,9.7
					c0.8,1.6,1.6,3.3,2.3,4.8l0.3-0.9C28.6,202.3,28,200.9,27.2,199.4z"/>
				<path fill="#FFFFFF" d="M30.2,198.3c-1.2-3.7-2.4-7.4-3.3-10.2c-0.9-2.8-1.6-4.6-1.6-4.6s0.5,1.9,1.3,4.7
					c0.8,2.8,1.9,6.5,3,10.3c0.3,0.8,0.5,1.6,0.8,2.5l0.4-1C30.6,199.4,30.4,198.9,30.2,198.3z"/>
				<path fill="#FFFFFF" d="M31.5,187.1c-0.5-2.9-0.9-4.8-0.9-4.8s0.2,1.9,0.6,4.8c0.3,2.4,0.7,5.4,1.1,8.5l0.4-1.2
					C32.4,191.8,31.9,189.2,31.5,187.1z"/>
				<path fill="#FFFFFF" d="M36.3,186.8c-0.1-2.9-0.2-4.9-0.2-4.9s-0.1,1.9-0.1,4.9c0,1.4-0.2,2.7-0.2,4.8h0.8
					C36.5,189.5,36.3,188.2,36.3,186.8z"/>
				<path fill="#FFFFFF" d="M57.6,242.3c2,2.1,3.4,3.5,3.4,3.5s-1.3-1.5-3.2-3.7c-0.3-0.3-0.6-0.6-0.8-1l-0.2,0.3
					C57.1,241.7,57.4,242,57.6,242.3z"/>
				<path fill="#FFFFFF" d="M60.9,238.8c2.3,1.8,3.9,2.9,3.9,2.9s-1.5-1.3-3.7-3.2c-2-1.7-4.5-3.8-7.1-5.9l0.4,1.2
					C56.8,235.7,59.1,237.4,60.9,238.8z"/>
				<path fill="#FFFFFF" d="M54.3,229.7c3.4,1.9,6.8,3.8,9.3,5.2c2.6,1.4,4.3,2.3,4.3,2.3s-1.6-1-4.1-2.6c-2.5-1.5-5.8-3.6-9.1-5.5
					c-0.9-0.5-1.7-1-2.6-1.5l0.4,1C53,228.9,53.7,229.3,54.3,229.7z"/>
				<path fill="#FFFFFF" d="M55.7,226.8c3.6,1.4,7.3,2.8,10,3.8c2.7,1,4.6,1.6,4.6,1.6s-1.8-0.8-4.5-1.9c-2.7-1.1-6.3-2.6-9.9-4.1
					c-1.8-0.7-3.5-1.4-5.2-2.1l0.3,0.8C52.6,225.6,54.1,226.2,55.7,226.8z"/>
				<path fill="#FFFFFF" d="M56.7,223.8c3.8,0.8,7.6,1.6,10.4,2.2c2.9,0.6,4.8,0.9,4.8,0.9s-1.9-0.5-4.7-1.2
					c-2.8-0.7-6.6-1.7-10.4-2.6c-2.4-0.6-4.9-1.1-7.1-1.6l0.3,0.7C52.1,222.8,54.4,223.3,56.7,223.8z"/>
				<path fill="#FFFFFF" d="M57.2,220.7c3.9,0.3,7.8,0.5,10.7,0.6c2.9,0.1,4.9,0.2,4.9,0.2s-1.9-0.2-4.8-0.5
					c-2.9-0.3-6.8-0.7-10.6-1c-2.9-0.2-5.8-0.5-8.3-0.6l0.2,0.6C51.6,220.2,54.4,220.5,57.2,220.7z"/>
				<path fill="#FFFFFF" d="M57.3,217.5c3.9-0.3,7.7-0.6,10.6-0.9c2.9-0.3,4.8-0.5,4.8-0.5s-1.9,0.1-4.9,0.2
					c-2.9,0.1-6.8,0.3-10.7,0.6c-3.2,0.2-6.4,0.4-9,0.7l0.2,0.6C51.1,217.9,54.2,217.7,57.3,217.5z"/>
				<path fill="#FFFFFF" d="M56.9,214.3c3.8-0.9,7.6-1.8,10.4-2.5c2.8-0.7,4.7-1.2,4.7-1.2s-1.9,0.4-4.8,0.9
					c-2.9,0.6-6.7,1.3-10.5,2.2c-3.3,0.7-6.5,1.5-9.1,2.1l0.2,0.6C50.4,215.8,53.7,215.1,56.9,214.3z"/>
				<path fill="#FFFFFF" d="M56,211.3c3.6-1.4,7.2-2.9,9.9-4c2.7-1.1,4.5-1.9,4.5-1.9s-1.8,0.6-4.6,1.6c-2.7,1-6.4,2.3-10,3.7
					c-3.1,1.2-6.3,2.4-8.8,3.5l0.2,0.6C49.7,213.7,52.9,212.5,56,211.3z"/>
				<path fill="#FFFFFF" d="M54.7,208.4c3.4-2,6.7-4,9.2-5.5c2.5-1.5,4.1-2.6,4.1-2.6s-1.7,0.9-4.3,2.3c-2.6,1.4-6,3.3-9.3,5.2
					c-2.9,1.6-5.7,3.3-8,4.6l0.2,0.6C48.9,211.7,51.8,210.1,54.7,208.4z"/>
				<path fill="#FFFFFF" d="M52.9,205.8c3-2.4,6-4.9,8.3-6.8c2.2-1.9,3.7-3.1,3.7-3.1s-1.6,1.1-3.9,2.9c-2.3,1.7-5.4,4.1-8.5,6.5
					c-2.4,1.9-4.8,3.8-6.9,5.5l0.2,0.6C48,209.7,50.5,207.7,52.9,205.8z"/>
				<path fill="#FFFFFF" d="M50.8,203.4c2.6-2.9,5.2-5.7,7.2-7.9c1.9-2.2,3.2-3.7,3.2-3.7s-1.4,1.4-3.4,3.4c-2,2.1-4.8,4.9-7.4,7.7
					c-1.9,2-3.8,4-5.4,5.8l0.2,0.7C46.9,207.6,48.9,205.5,50.8,203.4z"/>
				<path fill="#FFFFFF" d="M48.4,201.4c2.2-3.2,4.3-6.5,5.9-8.9c1.6-2.4,2.6-4.1,2.6-4.1s-1.2,1.6-2.9,3.9c-1.7,2.4-4,5.5-6.2,8.7
					c-1.3,1.9-2.6,3.8-3.8,5.5l0.3,0.7C45.6,205.4,47,203.4,48.4,201.4z"/>
				<path fill="#FFFFFF" d="M45.6,199.7c1.7-3.5,3.3-7,4.5-9.7c1.2-2.7,2-4.4,2-4.4s-0.9,1.7-2.3,4.3c-1.3,2.6-3.1,6.1-4.8,9.5
					c-0.7,1.4-1.4,2.9-2.1,4.2l0.3,0.9C44.1,203,44.9,201.4,45.6,199.7z"/>
				<path fill="#FFFFFF" d="M42.7,198.5c1.1-3.7,2.2-7.5,3-10.3c0.8-2.8,1.3-4.7,1.3-4.7s-0.6,1.8-1.6,4.6
					c-0.9,2.8-2.2,6.5-3.3,10.2c-0.2,0.5-0.3,1.1-0.5,1.6l0.4,1C42.2,200.1,42.5,199.3,42.7,198.5z"/>
				<path fill="#FFFFFF" d="M41.1,187.2c0.4-2.9,0.6-4.8,0.6-4.8s-0.4,1.9-0.9,4.8c-0.4,2.1-0.8,4.6-1.3,7.3l0.4,1.2
					C40.4,192.5,40.8,189.5,41.1,187.2z"/>
			</g>
			<polygon fill="#FFFFFF" points="52.7,239.4 36.3,196.1 19.6,239.4 			"/>
		</g>
	</g>
</g>
</svg>
