<?xml version="1.0" encoding="utf-8"?>
<!-- Generator: Adobe Illustrator 17.1.0, SVG Export Plug-In . SVG Version: 6.00 Build 0)  -->
<!DOCTYPE svg PUBLIC "-//W3C//DTD SVG 1.1//EN" "http://www.w3.org/Graphics/SVG/1.1/DTD/svg11.dtd">
<svg version="1.1" id="Layer_1" xmlns="http://www.w3.org/2000/svg" xmlns:xlink="http://www.w3.org/1999/xlink" x="0px" y="0px"
	 viewBox="0 0 517.5 92" enable-background="new 0 0 517.5 92" xml:space="preserve">
	 <g fill="#475a60">
<path  d="M145.3,41.9l-5.1-1.1c-4.5-0.8-9.1-1.7-9.1-6c0-4,4.7-6.1,9.4-6.1c7.8,0,11,4.7,12.8,7.2l7.2-5.4
	c-4.9-6.5-11.2-9.7-19.5-9.7c-11.5,0-19.2,6.1-19.2,15.1c0,7.4,5.1,10.6,8.2,11.9c1.4,0.6,2.8,0.9,5.4,1.5l0.8,0.2l5.9,1.2
	c4.3,1,4.6,1.1,5.6,1.5l0.1,0c1.8,0.7,3.8,1.9,3.8,5c0,1.8-0.7,4.3-4.3,5.8c-1.9,0.8-3.8,0.8-5.3,0.8c-10.2,0-14-5.4-15.3-7.4
	l-7.4,5.2c3.4,5.5,8.7,8,12.5,9.1c2.6,0.7,5.6,1.1,8.7,1.1c9.5,0,20.7-4.1,20.7-15.6C161.1,46.5,153.1,43.5,145.3,41.9z"/>
<path  d="M192.6,66.1c-2.5,3.1-7.2,5.6-12.6,5.6s-10.1-2.6-12.6-5.6c-2.7-3.4-4.2-7.2-4.2-13.3
	c0-6.1,1.5-9.9,4.2-13.3c2.5-3.1,7.2-5.6,12.6-5.6s10.1,2.6,12.6,5.6c2.7,3.4,4.2,7.2,4.2,13.3C196.9,58.9,195.4,62.7,192.6,66.1z
	 M185.5,43.6c-1.2-1.3-3.1-2.3-5.5-2.3s-4.3,1-5.5,2.3c-2.1,2.3-2.6,5.7-2.6,9.1c0,3.4,0.5,6.8,2.6,9.1c1.2,1.3,3.1,2.3,5.5,2.3
	s4.3-1,5.5-2.3c2.1-2.3,2.6-5.7,2.6-9.1C188.1,49.3,187.6,45.9,185.5,43.6z"/>
<path  d="M223.9,41.8v18.3c0,6.9,3.6,11.1,10.9,11.1c2.6,0,5-0.3,7.4-1V63c-2.4,0.3-3.8,0.3-5.6,0.3c-2.8,0-4-1.2-4-4
	V41.8h9.1v-7.2h-9.1V23.3l-8.7,2.2v9.2h-13.1v-3.3c0-2.6,1.6-4.4,4.7-4.4c2.3,0,3.9,0.2,5.7,0.6v-6.9c-2.7-0.6-4.3-0.8-6.8-0.8
	c-7.8,0-12.3,4.7-12.3,11.4v3.5h-6.1v7.2h6.1v29h8.7v-29H223.9z"/>
<path  d="M276,70.8l-8.2-18.6h-10.9v18.6h-9V21.5h20.8c11.7,0,17.1,7.4,17.1,15.3c0,6.6-3.6,11.8-9,13.8l9,20.2H276z
	 M268.7,29.4h-11.8v14.7h11.9c5.1,0,8-2.6,8-7.3C276.8,32.9,273.7,29.4,268.7,29.4z"/>
<path  d="M319,55.4h-24.2c-0.1,2.8,0.9,5.4,2.6,7.1c1.3,1.2,3,2.2,5.4,2.2c2.5,0,4-0.5,5.3-1.7
	c0.8-0.8,1.4-1.7,1.7-3.1h8.3c-0.2,2.2-1.7,5-3.1,6.7c-3.1,3.6-7.6,5.1-12.2,5.1c-4.9,0-8.5-1.7-11.4-4.4c-3.6-3.5-5.6-8.5-5.6-14.5
	c0-5.8,1.7-10.9,5.2-14.5c2.7-2.8,6.6-4.6,11.5-4.6c5.4,0,10.2,2.2,13.2,6.7c2.6,4,3.3,8.1,3.1,12.6C319,53,319,54.7,319,55.4z
	 M308.1,42.8c-1.2-1.3-3-2.1-5.5-2.1c-2.6,0-4.8,1.1-6,2.8c-1.3,1.6-1.8,3.3-1.9,5.6h15.6C310.3,46.4,309.5,44.3,308.1,42.8z"/>
<path  d="M326.3,60.2c2.2,2.7,5.4,4.6,10.4,4.6c5,0,7.2-2.5,7.2-4.3c0-2.3-2.6-2.9-3.8-3.1c-1.2-0.3-7.2-1.4-8.5-1.7
	c-8.6-2-10.2-7-10.2-10.3c0-6.2,5.6-11.8,15.5-11.8c5.5,0,9.5,1.7,12,3.5c1.8,1.2,3,2.4,3.7,3.3l-6.2,5.7c-1-2-3.5-5.5-9.9-5.5
	c-4.1,0-6,1.8-6,3.7c0,2.6,2.7,3.3,7.3,4.1c7.5,1.4,9.6,1.7,12,3.5c2.2,1.7,3.7,4.6,3.7,7.7c0,5.7-5.1,12.4-16.3,12.4
	c-6.4,0-12.8-2-17.4-6.4L326.3,60.2z"/>
<path  d="M384.8,66.1c-2.5,3.1-7.2,5.6-12.6,5.6c-5.5,0-10.1-2.6-12.6-5.6c-2.7-3.4-4.2-7.2-4.2-13.3
	c0-6.1,1.5-9.9,4.2-13.3c2.5-3.1,7.2-5.6,12.6-5.6c5.5,0,10.1,2.6,12.6,5.6c2.7,3.4,4.2,7.2,4.2,13.3
	C389.1,58.9,387.5,62.7,384.8,66.1z M377.7,43.6c-1.2-1.3-3.1-2.3-5.5-2.3c-2.4,0-4.3,1-5.5,2.3c-2.1,2.3-2.6,5.7-2.6,9.1
	c0,3.4,0.5,6.8,2.6,9.1c1.2,1.3,3.1,2.3,5.5,2.3c2.4,0,4.3-1,5.5-2.3c2.1-2.3,2.6-5.7,2.6-9.1C380.2,49.3,379.8,45.9,377.7,43.6z"/>
<path  d="M413.4,34.7v22c0,2.6-0.6,4.6-1.8,6c-1.2,1.4-2.7,2-4.6,2c-2,0-3.6-0.7-4.7-2c-1.2-1.4-1.8-3.4-1.8-6v-22
	H392v22.6c0,4.3,1.3,7.9,3.9,10.5c2.6,2.7,6.4,4,11.1,4c4.8,0,8.5-1.3,11.1-4c2.6-2.7,3.9-6.2,3.9-10.5V34.7H413.4z"/>
<path  d="M444.5,42.2c-6.1,0-9.3,4.4-9.3,10.2v18.2h-8.8V34.5h7.4l0.8,5.4c1.7-4.2,6-5.9,10.2-5.9
	c0.9,0,1.8,0.1,2.7,0.2v8.3C446.6,42.3,445.5,42.2,444.5,42.2z"/>
<path  d="M476.8,65.7c-2.5,3.1-6.9,5.7-12.4,5.7c-5.5,0-10.1-2.6-12.6-5.7c-2.7-3.4-4-7.9-4-13.2
	c0-5.3,1.3-9.8,4-13.2c2.5-3.1,7.1-5.7,12.6-5.7c5.5,0,9.9,2.6,12.4,5.7c1.7,2.2,2.6,5,2.8,7.9h-8.5c-0.1-1.3-0.5-2.4-1-3.3
	c-1-1.6-2.9-2.7-5.6-2.7c-2.4,0-4.1,1-5.3,2.2c-2.1,2.3-2.4,5.8-2.4,9.2c0,3.4,0.3,6.8,2.4,9.1c1.2,1.3,2.9,2.3,5.3,2.3
	c2.6,0,4.5-1.1,5.6-2.7c0.6-0.9,1-2,1-3.3h8.5C479.5,60.7,478.5,63.5,476.8,65.7z"/>
<path  d="M515.2,55.4H491c-0.1,2.8,0.9,5.4,2.6,7.1c1.3,1.2,3,2.2,5.4,2.2c2.5,0,4-0.5,5.3-1.7
	c0.8-0.8,1.4-1.7,1.7-3.1h8.3c-0.2,2.2-1.7,5-3.1,6.7c-3.1,3.6-7.6,5.1-12.2,5.1c-4.9,0-8.5-1.7-11.4-4.4c-3.6-3.5-5.6-8.5-5.6-14.5
	c0-5.8,1.7-10.9,5.2-14.5c2.7-2.8,6.6-4.6,11.5-4.6c5.4,0,10.2,2.2,13.2,6.7c2.6,4,3.3,8.1,3.1,12.6
	C515.3,52.9,515.2,54.6,515.2,55.4z M504.4,42.7c-1.2-1.3-3-2.1-5.5-2.1c-2.6,0-4.8,1.1-6,2.8c-1.3,1.6-1.8,3.3-1.9,5.6h15.6
	C506.5,46.3,505.8,44.2,504.4,42.7z"/>
<g>
	<path  d="M63.1,77.7C63.1,77.7,63.1,77.7,63.1,77.7c5.1-0.2,10-0.5,14.9-0.9c2.2-2.4,4.1-5,5.7-7.8
		c1.6-2.8,2.9-5.7,3.9-8.8c-2.1-4.3-4.3-8.7-6.6-13.2c0,0,0,0,0-0.1l-0.1-0.1c-3.1,5.3-6.9,10-11.3,14
		C68.2,66.7,66.1,72.4,63.1,77.7z"/>
	<path  d="M25.6,78.8L25.6,78.8L25.6,78.8L25.6,78.8L25.6,78.8"/>
	<path  d="M43.8,92c-3.2,0-6.4-0.3-9.6-1c-2.7-4-5.5-8.1-8.1-12.3c0,0,0-0.1,0-0.1c0,0,0,0,0-0.1c0,0,0,0,0,0
		c2.7-0.1,9.2-0.7,17-3c6,2,12.3,3,18.6,3.1l-0.1,0.1c0,0,0,0,0,0.1c-2.7,4.2-5.4,8.3-8.1,12.3C50.2,91.7,47,92,43.8,92z"/>
	<path  d="M44.3,74.4c5.6,1.7,11.3,2.6,17.2,2.6l0.1,0c2.8-4.9,4.9-10.1,6.2-15.5C61.3,67.2,53.4,71.5,44.3,74.4z"/>
	<path  d="M43,16.5c-7.9-2.3-14.4-2.9-17-3l0,0l0.1-0.2c0,0,0,0,0,0c2.7-4.2,5.4-8.3,8.1-12.3c3.2-0.7,6.4-1,9.6-1
		c3.2,0,6.4,0.3,9.6,1c2.7,3.9,5.5,8.1,8.2,12.4l0.1,0.1C55.2,13.5,48.9,14.5,43,16.5z"/>
	<path  d="M68.9,30.6c4.7,4.2,8.7,9.1,12,14.6c0,0,0,0,0.1-0.1c2.3-4.5,4.6-8.9,6.6-13.3c-1-3.1-2.3-6-3.9-8.8
		c-1.6-2.8-3.5-5.4-5.7-7.8c-4.8-0.4-9.7-0.7-14.7-0.9c0,0,0,0-0.1,0l-0.2,0C64.2,16.6,67,22.6,68.9,30.6z"/>
	<path  d="M68.6,32.3c1.1,5.1,1.7,10.2,1.7,15.1c0,4-0.4,7.9-1.1,11.7c4-3.8,7.5-8.3,10.3-13.2
		C76.6,40.9,72.9,36.3,68.6,32.3z"/>
	<path  d="M44.3,17.6c8.8,2.8,16.4,6.9,22.9,12.4c-2-7.6-4.6-13.1-5.6-15l-0.1,0C55.7,15,49.9,15.9,44.3,17.6z"/>
	<path  d="M6.3,46.6L6.3,46.6L6.3,46.6"/>
	<path  d="M24.3,77.7c-5-0.2-9.9-0.5-14.7-0.9c-2.2-2.4-4.1-5-5.7-7.8C2.3,66.2,1,63.3,0,60.2
		c2.1-4.3,4.3-8.8,6.6-13.2c0,0,0.1-0.1,0.1-0.1c0,0,0,0,0,0C8.1,49,11.9,54.4,17.8,60c1.3,6.2,3.5,12.1,6.7,17.7
		C24.5,77.7,24.3,77.7,24.3,77.7z"/>
	<path  d="M19.5,60.7c1.3,5.7,3.4,11.2,6.4,16.3c2.1-0.1,8.2-0.5,15.8-2.6C33.7,71.5,26.2,66.9,19.5,60.7z"/>
	<path  d="M6.6,45L6.6,45l0.1,0.2l0,0c1.5-2.3,5.5-8,11.8-13.8c1.9-8.4,4.9-14.7,6.1-17.1l0,0l-0.1,0c0,0,0,0,0,0
		c-5,0.2-10,0.5-14.8,0.9c-2.2,2.4-4.1,5-5.7,7.8C2.3,25.8,1,28.7,0,31.8C2.1,36.1,4.3,40.6,6.6,45C6.6,45,6.6,45,6.6,45z"/>
	<path  d="M25.9,15c-1,1.9-3.8,7.7-5.8,15.7c6.6-5.9,13.8-10.3,21.5-13.1C34.1,15.6,28,15.1,25.9,15z"/>
	<path  d="M8,46c1.1,1.8,4.5,6.8,10.1,12.3c-0.9-4.7-0.9-4.9-0.9-9.7l0-1.1c0-4.7,0.5-9.5,1.5-14.3
		C12.8,38.8,9.2,44.1,8,46z"/>
</g>
</g>
</svg>
